<svg viewBox="0 0 32 32" fill="none" xmlns="http://www.w3.org/2000/svg">
  <rect width="32" height="32" rx="6" fill="#000000"/>
  <g fill="#ffffff">
    <!-- M -->
    <path d="M4 8 L4 24 L6 24 L6 12 L8.5 18 L9.5 18 L12 12 L12 24 L14 24 L14 8 L11.5 8 L9 15 L6.5 8 Z"/>
    <!-- L -->
    <path d="M16 8 L16 22 L24 22 L24 24 L14 24 L14 8 Z"/>
    <!-- Dash -->
    <rect x="13.5" y="15" width="3" height="2"/>
    <!-- T -->
    <path d="M18 4 L28 4 L28 6 L24 6 L24 20 L22 20 L22 6 L18 6 Z"/>
  </g>
</svg>
